<?xml version="1.0" standalone="no"?>
<!DOCTYPE svg PUBLIC "-//W3C//DTD SVG 20010904//EN"
 "http://www.w3.org/TR/2001/REC-SVG-20010904/DTD/svg10.dtd">
<svg version="1.0" xmlns="http://www.w3.org/2000/svg"
 width="100.000000pt" height="100.000000pt" viewBox="0 0 100.000000 100.000000"
 preserveAspectRatio="xMidYMid meet">
<metadata>
Created by potrace 1.14, written by Peter Selinger 2001-2017
</metadata>
<g transform="translate(0.000000,100.000000) scale(0.100000,-0.100000)"
fill="#000000" stroke="none">
<path d="M915 995 c-5 -2 -44 -11 -85 -20 -105 -23 -242 -92 -316 -159 -59
-54 -62 -55 -96 -44 -20 6 -53 8 -74 3 -74 -13 -154 -130 -154 -222 0 -38 8
-40 52 -13 28 17 88 28 88 16 0 -2 -7 -23 -15 -46 -8 -23 -15 -51 -15 -61 0
-11 -17 -35 -39 -54 -39 -36 -71 -116 -71 -180 0 -28 0 -28 52 -22 66 8 150
49 168 82 8 15 22 25 35 25 13 0 42 7 65 15 23 8 44 15 46 15 12 0 1 -60 -16
-88 -11 -18 -20 -37 -20 -44 0 -18 91 -4 144 23 91 45 129 114 107 196 -11 39
-10 40 33 86 83 86 134 183 170 323 25 97 30 155 14 165 -13 8 -53 11 -73 4z"/>
<path d="M137 442 c-27 -28 -36 -62 -17 -62 15 0 80 64 80 79 0 21 -36 11 -63
-17z"/>
<path d="M75 268 c-75 -73 -90 -98 -57 -98 18 0 152 130 152 148 0 30 -27 16
-95 -50z"/>
<path d="M412 165 c-36 -40 -40 -55 -14 -55 25 0 76 55 69 74 -9 23 -19 20
-55 -19z"/>
<path d="M81 99 c-67 -67 -79 -88 -55 -96 15 -5 157 143 150 156 -12 19 -22
13 -95 -60z"/>
<path d="M238 100 c-64 -64 -84 -100 -56 -100 20 0 157 141 151 156 -9 25 -27
14 -95 -56z"/>
</g>
</svg>
